<svg version="1.0" xmlns="http://www.w3.org/2000/svg" width="100pt" height="200pt" viewBox="0 0 820.000000 392.000000" preserveAspectRatio="xMidYMid meet"> 
    <g transform="translate(0.000000,392.000000) scale(0.100000,-0.100000)" fill="#000000" stroke="none"> 
        <path d="M4335 3481 c-23 -10 -49 -30 -58 -44 -27 -42 -59 -191 -47 -222 13 -34 12 -82 -3 -124 -13 -37 -79 -81 -122 -81 -13 0 -28 -6 -34 -14 -7 -8 -25 -18 -41 -21 -16 -4 -40 -15 -53 -25 -13 -11 -49 -29 -80 -40 -52 -19 -117 -75 -117 -100 0 -6 -8 -10 -19 -10 -10 0 -24 -7 -32 -16 -7 -8 -31 -25 -53 -36 -23 -11 -48 -28 -56 -37 -8 -10 -41 -25 -72 -34 -65 -20 -141 -68 -246 -157 l-73 -61 -67 4 c-37 2 -75 8 -85 12 -15 6 -28 -2 -58 -35 -22 -24 -37 -45 -35 -48 3 -2 -4 -13 -15 -25 -29 -32 -25 -57 10 -57 16 0 34 -7 41 -15 7 -8 25 -15 40 -15 45 0 231 68 289 107 29 19 94 54 145 77 50 23 109 54 131 68 22 13 69 33 105 42 36 10 81 27 102 37 44 22 39 28 113 -121 31 -63 63 -122 71 -131 18 -20 18 -29 -2 -29 -8 0 -22 -16 -30 -35 -17 -42 -6 -100 28 -146 l21 -28 -32 -33 c-17 -18 -36 -50 -42 -73 -6 -22 -15 -47 -20 -55 -5 -8 -21 -40 -35 -70 -14 -30 -32 -59 -40 -63 -8 -4 -14 -19 -14 -33 0 -14 -7 -27 -17 -31 -24 -9 -42 -34 -43 -58 0 -11 -28 -58 -62 -104 l-62 -84 -13 30 c-19 47 -66 80 -130 93 -108 20 -105 19 -97 38 14 32 16 94 4 117 -16 29 -79 40 -96 16 -9 -12 -39 -17 -126 -21 -102 -5 -119 -8 -154 -31 -54 -36 -82 -89 -66 -124 13 -28 47 -45 91 -45 17 0 37 -10 52 -26 19 -20 31 -25 56 -21 65 11 97 -8 169 -99 47 -59 76 -87 95 -91 17 -3 38 -21 58 -50 25 -35 48 -52 106 -79 138 -64 157 -55 299 139 19 26 34 37 45 34 9 -3 31 -10 49 -16 29 -9 36 -7 66 19 31 27 115 70 138 70 22 0 64 -45 115 -122 29 -46 53 -86 53 -91 0 -5 29 -6 64 -2 l63 7 51 -77 50 -76 -5 -113 c-6 -127 1 -161 52 -246 40 -67 58 -168 49 -271 l-7 -72 54 6 c30 3 83 10 119 17 37 7 88 9 120 5 30 -4 73 -8 95 -9 68 -3 175 45 175 79 0 33 -27 47 -111 56 -122 13 -131 16 -124 39 8 24 -2 25 -56 3 -41 -16 -42 -16 -60 5 -15 20 -17 38 -12 155 5 111 3 138 -11 164 -12 24 -16 60 -16 150 0 82 -5 136 -17 173 -9 32 -17 97 -18 156 -3 109 -7 123 -85 258 -22 38 -40 77 -40 87 0 9 -11 30 -24 46 -14 16 -28 43 -32 59 -4 16 -16 41 -27 55 -17 24 -18 29 -4 50 13 20 14 30 3 59 -7 21 -9 47 -5 63 12 45 20 436 11 536 -8 100 -2 121 39 121 10 0 24 9 31 20 9 13 24 20 44 20 42 0 126 75 161 144 42 85 122 185 164 206 21 11 51 36 66 55 15 19 35 35 44 35 30 0 42 76 14 86 -8 4 -15 13 -15 21 0 8 -9 17 -20 20 -14 4 -20 14 -20 34 0 39 -25 38 -45 -1 -9 -18 -23 -30 -36 -30 -15 0 -27 -16 -48 -62 -23 -50 -46 -79 -113 -140 -47 -42 -105 -90 -129 -106 -24 -17 -55 -42 -68 -56 -14 -14 -32 -26 -41 -26 -9 0 -25 -7 -36 -15 -10 -8 -26 -15 -36 -15 -9 0 -18 -5 -20 -12 -3 -9 -17 -7 -51 6 -26 10 -47 20 -47 22 0 3 6 15 14 27 8 12 29 58 46 102 18 44 39 87 47 97 16 18 43 135 43 187 0 48 -34 96 -84 120 -54 27 -145 28 -201 2z"/> 
    </g> 
    <defs> 
        <path id="text-arc" d="M 0, 50 A 50 50 0 1 1 1,50" /> 
    </defs> 
    <g transform="translate(350, 340)"> 
        <text fill="#000000" font-family="Tahoma" font-size="1em" font-weight="bold"> 
            <textPath href="#text-arc" >FootballScore! FootballScore!FootballScore!</textPath> 
        </text> 
    </g> 
</svg>